<svg xmlns="http://www.w3.org/2000/svg" width="24" height="24" viewBox="0 0 24 24">
    <g fill="none">
        <path fill-rule="evenodd" clip-rule="evenodd" d="M 12 22 C 12.5 22 13 22 13.4 21.9 C 12.5 20.8 12 19.5 12 18 C 12 17.7 12 17.3 12.1 17 H 6 V 16 C 6 14.1 10 13 12 13 C 12.6 13 13.4 13.1 14.3 13.3 C 15.3 12.5 16.6 12 18 12 C 19.5 12 20.8 12.5 21.9 13.4 C 22 13 22 12.5 22 12 C 22 6.5 17.5 2 12 2 C 6.5 2 2 6.5 2 12 C 2 17.5 6.5 22 12 22 Z M 12 12 C 13.7 12 15 10.7 15 9 C 15 7.3 13.7 6 12 6 C 10.3 6 9 7.3 9 9 C 9 10.7 10.3 12 12 12 Z" fill="currentColor"></path>
        <path d="M 18 22 C 20.2 22 22 20.2 22 18 C 22 15.8 20.2 14 18 14 C 15.8 14 14 15.8 14 18 C 14 20.2 15.8 22 18 22 Z" fill="currentColor"></path>
    </g>
</svg>