<svg xmlns="http://www.w3.org/2000/svg" width="18" height="18" viewBox="0 0 24 24">
  <path fill-rule="evenodd" clip-rule="evenodd" d="M12.1151 2.00065C12.0768 2.00022 12.0384 2 12 2C6.477 2 2 6.477 2 12C2 17.522 6.477 22 12 22C17.523 22 22 17.522 22 12C22 11.9616 21.9998 11.9232 21.9993 11.8849C21.1882 12.1737 20.3146 12.3309 19.4043 12.3309C15.1323 12.3309 11.6691 8.86771 11.6691 4.59565C11.6691 3.68536 11.8263 2.8118 12.1151 2.00065ZM7.92105 11.8023C7.92105 12.7107 7.18468 13.4471 6.27631 13.4471C5.36795 13.4471 4.63158 12.7107 4.63158 11.8023C4.63158 10.894 5.36795 10.1576 6.27631 10.1576C7.18467 10.1576 7.92105 10.894 7.92105 11.8023ZM10.5217 14.5171C10.3859 13.9893 9.84786 13.6716 9.32005 13.8074C8.79223 13.9433 8.47448 14.4813 8.61033 15.0091C9.01196 16.5695 10.4273 17.7236 12.1147 17.7236C13.8021 17.7236 15.2174 16.5695 15.6191 15.0091C15.7549 14.4813 15.4372 13.9433 14.9093 13.8074C14.3815 13.6716 13.8435 13.9893 13.7077 14.5171C13.525 15.2267 12.8797 15.7499 12.1147 15.7499C11.3497 15.7499 10.7044 15.2267 10.5217 14.5171Z" fill="currentColor"></path><path d="M18.5 2C17.9477 2 17.5 2.44772 17.5 3V4.5H16C15.4477 4.5 15 4.94771 15 5.5C15 6.05228 15.4477 6.5 16 6.5H17.5V8C17.5 8.55228 17.9477 9 18.5 9C19.0523 9 19.5 8.55229 19.5 8V6.5H21C21.5523 6.5 22 6.05229 22 5.5C22 4.94772 21.5523 4.5 21 4.5H19.5V3C19.5 2.44772 19.0523 2 18.5 2Z" fill="currentColor"></path>
</svg>
